<?xml version="1.0" encoding="UTF-8"?>
<svg xmlns="http://www.w3.org/2000/svg" 
  xmlns:xlink="http://www.w3.org/1999/xlink" x="0px" y="0px" viewBox="0 0 100 100" style="enable-background:new 0 0 100 100;" xml:space="preserve">
  <g fill="#fff">
    <path d="M26.7,91l-5-5l9.2-9.2l7.8,7.8l2.1-2.1l-4.4-4.4l35.9-35.9c1-1,1.6-2.4,1.6-3.9c0-1.3-0.5-2.5-1.3-3.5l5.3-5.3   c1.4-1.4,1.4-3.6,0-4.9l-0.2-0.2L93.1,9L91,6.9L75.8,22.1l-0.2-0.2c-1.3-1.3-3.6-1.3-4.9,0l-5.3,5.3c-2.2-1.8-5.4-1.7-7.4,0.3   L21.9,63.5l-4.4-4.4l-2.1,2.1l7.1,7.1l-9.2,9.2L9,73.3l-2.1,2.1l17.7,17.7L26.7,91z M30.4,59.3l6.2,6.2l2.1-2.1l-6.2-6.2l5-5   l4.1,4.1l2.1-2.1l-4.1-4.1l4.9-4.9l6.2,6.2l2.1-2.1L46.6,43l5-5l4.1,4.1l2.1-2.1l-4.1-4.1l6.2-6.2c1-1,2.6-1,3.5,0l6.8,6.8   c0.5,0.5,0.7,1.1,0.7,1.8c0,0.7-0.3,1.3-0.7,1.8L34.4,76L24,65.6L30.4,59.3z"></path>
  </g>
</svg>
