<?xml version="1.0" encoding="UTF-8"?>
<svg xmlns="http://www.w3.org/2000/svg" xmlns:xlink="http://www.w3.org/1999/xlink" x="0px" y="0px" viewBox="0 0 100 100" xml:space="preserve">
  <g>
    <path fill="none" d="M54.096,48.188l4.721,3.983l0.562-0.665c-4.598-3.826-9.195-7.652-13.792-11.476l-17.915,21.22   c-1.547,1.833-2.288,4.155-2.085,6.544c0.203,2.387,1.323,4.552,3.152,6.1c3.778,3.189,9.45,2.712,12.642-1.068l0.127-0.152   l-4.721-3.985c-0.466-0.394-0.526-1.093-0.131-1.561c0.392-0.466,1.091-0.526,1.561-0.133l4.719,3.987l2.575-3.051l-2.619-2.211   c-0.47-0.395-0.528-1.093-0.134-1.561c0.394-0.466,1.093-0.526,1.561-0.132l2.62,2.212l2.841-3.365l-4.72-3.985   c-0.466-0.395-0.526-1.093-0.13-1.563c0.394-0.466,1.091-0.526,1.561-0.131l4.718,3.985l2.576-3.049l-2.62-2.211   c-0.468-0.395-0.526-1.095-0.132-1.563c0.395-0.468,1.093-0.528,1.561-0.133l2.62,2.212l2.172-2.574l-4.718-3.985   c-0.466-0.394-0.526-1.095-0.131-1.561C52.929,47.853,53.627,47.793,54.096,48.188z"></path>
    <path fill="none" d="M65.008,21.978c-0.254,0-0.511,0.01-0.768,0.033c-2.391,0.201-4.556,1.321-6.102,3.152L46.836,38.551   c4.597,3.826,9.195,7.65,13.79,11.477l0.765-0.906l-2.62-2.213c-0.468-0.394-0.526-1.091-0.132-1.561   c0.394-0.466,1.093-0.526,1.563-0.131l2.619,2.211l2.841-3.365l-4.72-3.983c-0.466-0.396-0.526-1.095-0.13-1.561   c0.392-0.466,1.091-0.528,1.561-0.132l4.718,3.985l2.576-3.051l-2.62-2.211c-0.468-0.395-0.526-1.095-0.132-1.561   c0.395-0.466,1.093-0.526,1.561-0.131l2.62,2.211l0.754-0.893c1.545-1.829,2.285-4.153,2.082-6.54   c-0.198-2.387-1.317-4.554-3.15-6.099C69.148,22.716,67.121,21.978,65.008,21.978z"></path>
    <path fill="none" d="M69.943,20.114c0.966,0.443,1.893,1.008,2.742,1.727c0.842,0.71,1.561,1.522,2.165,2.408l5.521-6.54   l-4.901-4.139L69.943,20.114z"></path>
    <path fill="none" d="M80.855,12.161c-4.163-3.514-7.382-4.404-8.145-4.206c-0.033,0.408,0.336,1.423,1.277,2.792l0.178-0.21   c0.525-0.622,1.459-0.703,2.08-0.176l7.16,6.044c0.3,0.252,0.485,0.614,0.519,1.005c0.033,0.39-0.09,0.777-0.343,1.077   l-0.178,0.212c1.508,0.698,2.569,0.892,2.966,0.789C86.434,18.701,85.018,15.678,80.855,12.161z"></path>
    <path d="M82.759,9.905C78.372,6.2,72.642,3.407,70.428,6.027v0.002c-1.402,1.661-0.422,4.349,1.6,7.04L66.86,19.19   c-3.987-0.625-8.191,0.768-10.979,4.068L25.416,59.347c-2.055,2.433-3.041,5.521-2.772,8.694c0.228,2.677,1.331,5.138,3.127,7.077   L11.039,92.57c-0.526,0.622-0.448,1.554,0.175,2.08C11.491,94.883,11.83,95,12.166,95c0.42,0,0.837-0.18,1.13-0.524l14.733-17.452   c1.981,1.291,4.236,1.933,6.487,1.933c3.394,0,6.766-1.437,9.121-4.227l30.467-36.087c2.054-2.433,3.039-5.523,2.77-8.696   c-0.081-0.973-0.293-1.912-0.595-2.814l5.154-6.108c0.551,0.284,1.086,0.53,1.603,0.736c1.264,0.5,2.278,0.694,3.087,0.694   c1.296,0,2.071-0.501,2.528-1.042C90.862,18.791,87.147,13.609,82.759,9.905z M52.667,49.88l4.718,3.985l-2.172,2.574l-2.62-2.212   c-0.468-0.395-1.165-0.335-1.561,0.133c-0.394,0.468-0.336,1.167,0.132,1.563l2.62,2.211l-2.576,3.049l-4.718-3.985   c-0.469-0.396-1.167-0.336-1.561,0.131c-0.396,0.47-0.336,1.167,0.13,1.563l4.72,3.985l-2.841,3.365l-2.62-2.212   c-0.468-0.394-1.167-0.334-1.561,0.132c-0.394,0.468-0.336,1.165,0.134,1.561l2.619,2.211l-2.575,3.051l-4.719-3.987   c-0.47-0.394-1.169-0.334-1.561,0.133c-0.396,0.468-0.336,1.167,0.131,1.561l4.721,3.985l-0.127,0.152   c-3.192,3.78-8.864,4.257-12.642,1.068c-1.829-1.549-2.949-3.713-3.152-6.1c-0.203-2.389,0.539-4.711,2.085-6.544l17.915-21.22   c4.596,3.824,9.194,7.65,13.792,11.476l-0.562,0.665l-4.721-3.983c-0.468-0.396-1.167-0.336-1.559,0.131   C52.141,48.785,52.201,49.486,52.667,49.88z M71.848,36.736l-0.754,0.893l-2.62-2.211c-0.468-0.396-1.166-0.336-1.561,0.131   c-0.394,0.466-0.336,1.165,0.132,1.561l2.62,2.211l-2.576,3.051l-4.718-3.985c-0.47-0.396-1.169-0.334-1.561,0.132   c-0.396,0.466-0.336,1.165,0.13,1.561l4.72,3.983l-2.841,3.365l-2.619-2.211c-0.47-0.396-1.169-0.336-1.563,0.131   c-0.394,0.47-0.335,1.167,0.132,1.561l2.62,2.213l-0.765,0.906c-4.596-3.827-9.193-7.651-13.79-11.477l11.301-13.387   c1.547-1.831,3.711-2.95,6.102-3.152c0.258-0.023,0.514-0.033,0.768-0.033c2.114,0,4.141,0.738,5.772,2.119   c1.833,1.545,2.952,3.712,3.15,6.099C74.132,32.583,73.393,34.907,71.848,36.736z M74.849,24.249   c-0.604-0.886-1.322-1.698-2.165-2.408c-0.85-0.719-1.776-1.284-2.742-1.727l5.527-6.544l4.901,4.139L74.849,24.249z    M83.402,18.698l0.178-0.212c0.253-0.3,0.376-0.687,0.343-1.077c-0.034-0.39-0.219-0.752-0.519-1.005l-7.16-6.044   c-0.622-0.526-1.556-0.445-2.08,0.176l-0.178,0.21c-0.941-1.369-1.31-2.384-1.277-2.792c0.763-0.198,3.982,0.692,8.145,4.206   c4.163,3.517,5.579,6.54,5.514,7.326C85.971,19.589,84.91,19.395,83.402,18.698z"></path>
  </g>
</svg>
