<?xml version="1.0" encoding="UTF-8"?>
<svg xmlns="http://www.w3.org/2000/svg" xmlns:xlink="http://www.w3.org/1999/xlink" x="0px" y="0px" viewBox="0 0 100 100" style="enable-background:new 0 0 100 100;" xml:space="preserve">
  <path d="M89.3,45.5H35.7c-1.7,0-3.1-1.4-3.1-3.1s1.4-3.1,3.1-3.1h53.5c1.7,0,3.1,1.4,3.1,3.1S91,45.5,89.3,45.5z"></path>
  <path d="M90.9,48.6H28.9V4.2c0-1.7-1.4-3.1-3.1-3.1H7.6c-1.7,0-3.1,1.4-3.1,3.1c0,0,0,47.4,0,47.4c0,5.5,3.8,11.8,9.1,13.6v29.8  c0,1.7,1.4,3.1,3.1,3.1h45.9c1.7,0,3.1-1.4,3.1-3.1V83C81.6,81.4,94,68,94,51.7C94,49.9,92.6,48.6,90.9,48.6z M10.7,7.3h12v40.8h-12  V7.3z M62.5,76.9c-1.7,0-3.1,1.4-3.1,3.1v12H19.8V62.7c0-1.7-1.4-3.1-3.1-3.1c-2.2,0-4.3-2.3-5.3-4.9h76.3  C86.1,67.2,75.4,76.9,62.5,76.9z"></path>
</svg>
