<?xml version="1.0" encoding="UTF-8"?>
<svg xmlns="http://www.w3.org/2000/svg" xmlns:xlink="http://www.w3.org/1999/xlink" x="0px" y="0px" viewBox="0 0 100 100" style="enable-background:new 0 0 100 100;" xml:space="preserve">
  <g>
    <path d="M50.3,93.1c-5.5,0-10.2-2.1-10.2-4.5V41h0.1l0-0.5c0.4-4.7,2.8-8.8,6.3-10.5l0.3-0.1V12.3l-0.2-0.1   c-0.3-0.2-0.5-0.5-0.5-0.8v-0.8c0-0.3,0.2-0.6,0.5-0.8l0.2-0.1V7.5c0.1-0.2,1.3-0.6,3.5-0.6c2.1,0,3.3,0.4,3.5,0.7l0,2L54,9.7   c0.3,0.2,0.5,0.5,0.5,0.8v0.8c0,0.3-0.2,0.6-0.5,0.8l-0.2,0.1v17.6l0.3,0.1c3.5,1.7,6,5.8,6.3,10.5l0,0.5h0.1v47.6   C60.5,91.1,55.8,93.1,50.3,93.1z M42.6,88.5l0.1,0.1c0.8,0.8,3.5,2,7.6,2c4.1,0,6.8-1.2,7.6-2l0.1-0.1V75.2H42.6V88.5z M47.7,32.3   c-2.7,1.3-4.7,4.7-5,8.5l-0.1,1.2l0,8.6H58v-8.9l-0.1-0.9c-0.3-3.8-2.3-7.1-5-8.5l-1.7-0.8v-8.2h-1.9v8.2L47.7,32.3z"></path>
    <path d="M50.3,7.4c1.5,0,2.5,0.2,3,0.4v1.5v0.5l0.4,0.3c0.1,0.1,0.3,0.2,0.3,0.4v0.8c0,0.2-0.2,0.4-0.3,0.4L53.3,12v0.5v17v0.6   l0.6,0.3c3.4,1.7,5.7,5.5,6.1,10.1l0.1,0.9h0v47.1c0,1.9-4,4-9.7,4c-5.7,0-9.7-2.1-9.7-4V41.5h0l0.1-0.9c0.4-4.6,2.7-8.4,6.1-10.1   l0.6-0.3v-0.6v-17V12l-0.4-0.3c-0.1-0.1-0.3-0.2-0.3-0.4v-0.8c0-0.2,0.2-0.4,0.3-0.4l0.4-0.3V9.3V7.8C47.8,7.6,48.8,7.4,50.3,7.4    M48.9,31.1l-1.4,0.7c-2.9,1.4-4.9,4.9-5.2,8.9l-0.1,1.2l0,0v0v8v1h1h14.4h1v-1v-8.4v-0.1l0-0.1l-0.1-0.8c-0.3-4-2.4-7.5-5.2-8.9   l-1.4-0.7v-1.5v-5.8v-1h-1h-0.9h-1v1v5.8V31.1 M50.3,91.1c4.6,0,7.2-1.4,7.9-2.1l0.3-0.3v-0.4V75.7v-1h-1H43.1h-1v1v12.6v0.4   l0.3,0.3C43.2,89.7,45.8,91.1,50.3,91.1 M50.3,6.4c-2.2,0-4,0.5-4,1.1v1.8c-0.4,0.3-0.7,0.7-0.7,1.2v0.8c0,0.5,0.3,1,0.7,1.2v17   c-3.6,1.8-6.2,6-6.6,10.9h-0.1v48.1c0,2.8,4.8,5,10.7,5c5.9,0,10.7-2.2,10.7-5V40.5h-0.1c-0.4-5-3-9.1-6.6-10.9v-17   c0.4-0.3,0.7-0.7,0.7-1.2v-0.8c0-0.5-0.3-1-0.7-1.2V7.5C54.3,6.9,52.5,6.4,50.3,6.4L50.3,6.4z M43.1,50v-8l0.1-1.2   c0.3-3.6,2.1-6.8,4.7-8.1l1.9-1v-2.2v-5.8h0.9v5.8v2.2l1.9,1c2.6,1.3,4.4,4.4,4.7,8.1l0.1,0.8V50H43.1L43.1,50z M50.3,90.1   c-4.2,0-6.6-1.3-7.2-1.8V75.7h14.4v12.6C56.9,88.9,54.5,90.1,50.3,90.1L50.3,90.1z"></path>
  </g>
</svg>
