<?xml version="1.0" encoding="UTF-8"?>
<svg xmlns="http://www.w3.org/2000/svg" xmlns:xlink="http://www.w3.org/1999/xlink" x="0px" y="0px" viewBox="0 0 32 32" xml:space="preserve">
  <g>
    <path d="M22,2L2,22l8,8l20-20L22,2z M5.0606689,23.6464233l2.5857544-2.5857544c0.194458-0.194458,0.194458-0.5126953,0-0.7071533   s-0.5126343-0.194458-0.7070923,0L4.3535767,22.93927L3.4142456,22L22,3.4141846l2.7573242,2.7573853l-4.2677612,4.2677612   c-0.194397,0.194458-0.194397,0.5126343,0,0.7070923c0.194458,0.194458,0.5126953,0.194458,0.7071533,0l4.2677002-4.2677612   l1.2071533,1.2070923l-1.8535767,1.8535767c-0.194458,0.194458-0.194458,0.5126343,0,0.7070923s0.5126953,0.194458,0.7071533,0   l1.8535156-1.8535767L28.5857544,10L10,28.5857544L5.0606689,23.6464233z"></path>
    <path d="M13.5961914,16.3535156l-4.2426147,4.2426758c-0.194458,0.194458-0.194458,0.5126343,0,0.7070923   s0.5126343,0.194458,0.7070923,0l4.2426147-4.2426147c0.194458-0.194458,0.194458-0.5126953,0-0.7071533   S13.7906494,16.1590576,13.5961914,16.3535156z"></path>
    <path d="M12.1820068,21.3535156l-2.8284302,2.8284302c-0.194458,0.194458-0.194458,0.5126953,0,0.7071533   c0.194458,0.194397,0.5126343,0.194397,0.7070923,0l2.8284302-2.8284302c0.194458-0.194458,0.194458-0.5126953,0-0.7071533   S12.3764648,21.1590576,12.1820068,21.3535156z"></path>
    <path d="M21.4246216,6.5753784c-0.194458-0.194458-0.5126343-0.194458-0.7070923,0l-6.3639526,6.3639526   c-0.194458,0.194458-0.194458,0.5126343,0,0.7070923s0.5126343,0.194458,0.7070923,0l6.3639526-6.3639526   C21.6190796,7.0880127,21.6190796,6.7698364,21.4246216,6.5753784z"></path>
    <path d="M19.9393311,15.3535156l-4.2426147,4.2426758c-0.194458,0.194458-0.194458,0.5126343,0,0.7070923   s0.5126343,0.194458,0.7070923,0l4.2426147-4.2426147c0.194458-0.194458,0.194458-0.5126953,0-0.7071533   S20.1337891,15.1590576,19.9393311,15.3535156z"></path>
  </g>
</svg>
