<?xml version="1.0" standalone="no"?>
<!DOCTYPE svg PUBLIC "-//W3C//DTD SVG 20010904//EN"
 "http://www.w3.org/TR/2001/REC-SVG-20010904/DTD/svg10.dtd">
<svg version="1.0" xmlns="http://www.w3.org/2000/svg"
 width="817.000000pt" height="817.000000pt" viewBox="0 0 817.000000 817.000000"
 preserveAspectRatio="xMidYMid meet">
<metadata>
Created by potrace 1.11, written by Peter Selinger 2001-2013
</metadata>
<g transform="translate(0.000000,817.000000) scale(0.100000,-0.100000)"
fill="#000000" stroke="none">
<path d="M4071 7980 c-1 -33 -4 -69 -6 -81 -2 -12 -7 -47 -11 -78 -3 -31 -8
-65 -11 -76 -2 -11 -6 -34 -9 -52 -2 -18 -11 -63 -20 -100 -19 -82 -23 -98
-28 -120 -13 -57 -38 -145 -54 -193 -11 -30 -20 -58 -21 -62 -3 -12 -7 -26
-51 -148 -23 -63 -42 -121 -42 -127 -1 -7 -5 -13 -10 -13 -4 0 -8 -7 -8 -16 0
-8 -9 -35 -20 -60 -22 -47 -43 -96 -45 -104 0 -3 -6 -15 -13 -26 -6 -12 -8
-24 -5 -28 3 -3 1 -6 -5 -6 -7 0 -12 -5 -12 -10 0 -29 -197 -422 -338 -675
-25 -44 -55 -98 -67 -120 -42 -76 -127 -220 -145 -246 -10 -14 -30 -48 -45
-75 -14 -27 -40 -69 -56 -94 -16 -25 -32 -51 -36 -59 -3 -8 -26 -44 -50 -80
-23 -36 -43 -72 -43 -78 0 -7 -4 -13 -8 -13 -5 0 -21 -21 -36 -47 -15 -27 -45
-75 -66 -108 -22 -33 -47 -75 -57 -92 -9 -18 -20 -33 -25 -33 -4 0 -8 -6 -8
-14 0 -8 -6 -21 -13 -28 -7 -7 -23 -31 -37 -53 -13 -22 -47 -77 -77 -122 -29
-45 -53 -87 -53 -92 0 -6 -4 -11 -10 -11 -5 0 -10 -5 -10 -12 0 -6 -11 -25
-24 -42 -12 -17 -31 -44 -40 -61 -9 -16 -24 -42 -34 -57 -41 -64 -287 -474
-352 -588 -97 -170 -278 -539 -333 -680 -76 -195 -120 -349 -145 -510 -9 -59
-9 -355 1 -445 7 -71 8 -81 28 -190 14 -82 15 -88 21 -105 5 -14 26 -98 33
-130 9 -41 72 -216 111 -305 55 -128 122 -256 165 -317 11 -14 19 -31 19 -37
0 -6 5 -11 10 -11 6 0 10 -5 10 -10 0 -22 172 -241 270 -344 112 -118 252
-241 350 -309 25 -17 47 -34 48 -39 2 -4 8 -8 13 -8 11 0 70 -40 81 -55 4 -5
8 -6 8 -1 0 5 8 2 18 -7 37 -33 328 -181 377 -192 5 -1 21 -7 35 -12 55 -22
230 -79 275 -89 70 -15 220 -44 253 -48 126 -18 174 -21 362 -21 181 0 293 6
363 21 12 2 38 7 57 10 19 2 60 10 90 16 30 6 60 12 65 14 37 7 182 50 240 71
39 14 75 26 80 27 15 4 59 23 113 48 26 12 49 22 52 23 3 0 39 18 80 39 263
136 507 323 713 546 89 96 287 366 287 391 0 5 3 9 8 9 4 0 12 10 18 23 6 12
38 76 71 142 71 140 160 373 178 464 2 9 10 43 18 76 9 33 18 74 21 90 2 17 7
44 10 60 24 126 31 216 31 390 0 166 -5 223 -25 315 -6 25 -13 56 -15 70 -13
59 -80 263 -120 360 -67 164 -99 232 -242 510 -15 30 -30 57 -34 60 -3 3 -13
21 -22 40 -10 19 -25 49 -35 65 -21 36 -118 201 -149 253 -12 20 -27 46 -32
57 -6 11 -33 55 -61 98 -27 43 -50 83 -50 88 0 5 -4 9 -10 9 -5 0 -10 4 -10 9
0 6 -42 75 -92 155 -51 80 -98 154 -103 165 -6 10 -22 36 -36 57 -14 22 -37
57 -51 79 -14 22 -46 72 -72 112 -25 40 -46 77 -46 83 0 5 -4 10 -10 10 -5 0
-10 7 -10 15 0 8 -4 15 -9 15 -5 0 -11 8 -15 18 -3 9 -14 29 -23 44 -41 61
-133 210 -133 215 0 3 -13 23 -29 46 -42 62 -91 146 -91 157 0 6 -3 10 -8 10
-7 0 -13 10 -42 66 -8 16 -17 31 -20 34 -10 10 -31 46 -41 73 -6 15 -15 27
-20 27 -5 0 -9 4 -9 8 0 5 -36 74 -81 153 -306 545 -498 975 -622 1399 -43
147 -89 360 -102 480 -4 30 -8 67 -11 81 -2 15 -5 50 -6 78 -3 70 -14 64 -17
-9z"/>
</g>
</svg>
